REM MD5 45c6f8469883334e393b205165a67ae4
FILE "Taikyoku Igo - Shinzui Gosennin - Nigou (Japan).bin" BINARY
  TRACK 01 MODE2/2352
    INDEX 01 00:00:00
  TRACK 02 AUDIO
    INDEX 00 00:19:23
    INDEX 01 00:21:23
  TRACK 03 AUDIO
    INDEX 00 01:24:71
    INDEX 01 01:26:71
  TRACK 04 AUDIO
    INDEX 00 03:28:65
    INDEX 01 03:30:65
  TRACK 05 AUDIO
    INDEX 00 05:34:37
    INDEX 01 05:36:37
  TRACK 06 AUDIO
    INDEX 00 07:41:67
    INDEX 01 07:43:67
REM LEADOUT 10:48:67
